<svg width="408" height="408" viewBox="0 0 408 408" fill="none" xmlns="http://www.w3.org/2000/svg">
<rect width="408" height="408" rx="204" fill="#3F51B5"/>
<path d="M277.358 181.126H224.651V148.755C224.651 148.755 224.651 125.767 206.297 125.767C187.943 125.767 187.943 148.755 187.943 148.755V270.732C187.943 270.732 187.943 296.535 206.297 297.005C224.651 297.474 224.651 270.732 224.651 270.732V231.793H277.358C277.358 231.793 280.396 287.309 272.182 307.326C263.711 327.968 243.475 335.474 230.768 337.82C218.062 340.166 184.649 338.289 184.649 338.289C160.753 335.849 136.177 323.746 131 284.807V133.273C136.177 108.408 151.707 100.433 151.707 100.433C151.707 100.433 153.594 82.5538 164.413 69C169.367 80.5412 174.087 84.7085 184.649 89.6424H235.004C246.5 82 248 79 254.299 69C260.988 85.1654 262.194 85.3833 261.828 100.433C261.828 100.433 272.652 107.001 277.358 125.767C278.802 131.524 277.358 181.126 277.358 181.126Z" fill="white"/>
</svg>
