<svg width="202" height="232" viewBox="0 0 202 232" fill="none" xmlns="http://www.w3.org/2000/svg">
<g clip-path="url(#clip0)">
<path d="M138.81 161.12C144.39 152.98 146.54 147.95 159.55 139.89C154.698 141.205 149.777 142.25 144.81 143.02C147.81 133.62 150.81 124.14 155.72 114.02C156.713 111.96 157.743 110.013 158.81 108.18C159.663 106.713 160.533 105.31 161.42 103.97C163.89 101.16 174.25 91.04 194.04 92.52C190.32 92.17 180.12 91.02 174.27 88.62C185.18 77.79 195.92 70.35 200.49 55.9C207.81 32.77 183.81 -2.29 155.89 0.119997C150.907 0.723222 146.043 2.0716 141.46 4.12C128.04 25.64 115.54 55.46 124.46 83.6C115.063 67.2102 106.826 50.1818 99.81 32.64C99.41 33.13 99.01 33.58 98.61 34L97.84 34.77C90.84 41.27 90.29 29.77 91.94 23.41C93.16 18.76 87.73 34.14 81.84 48.24C82.55 51.4 83.37 54.58 84.33 57.73L84.57 58.5V58.66L84.75 59.22C84.99 59.9733 85.2367 60.7233 85.49 61.47L85.6 61.79L85.8 62.38L86 62.96L86.29 63.76L86.42 64.11L86.81 65.11L86.99 65.57L87.17 66.03L87.3 66.37L87.5 66.88L87.58 67.08L87.77 67.54L87.9 67.85L88.09 68.31L88.28 68.76L88.71 69.76L88.87 70.13L89.07 70.58L89.25 70.99L89.5 71.55L89.76 72.12C90 72.6267 90.2433 73.13 90.49 73.63L90.69 74.03L90.9 74.45L91.11 74.86L91.32 75.26L91.74 76.07L92.03 76.62L92.1 76.75L92.44 77.37L92.51 77.49C92.7634 77.9433 93.02 78.3967 93.28 78.85L93.67 79.51L93.99 80.04L94.29 80.54L94.65 81.13L94.95 81.61L95.17 81.96L95.62 82.65L95.85 82.99L96.08 83.33L96.78 84.33L97.02 84.67L97.18 84.9L97.44 85.27L97.71 85.64C98.0433 86.1 98.3767 86.5567 98.71 87.01L98.99 87.38C99.57 88.1267 100.163 88.8633 100.77 89.59L101.04 89.91L101.62 90.59L101.82 90.81C102.333 91.3967 102.857 91.9733 103.39 92.54L103.71 92.88L103.9 93.08L104.25 93.44L104.59 93.78L105.29 94.47L105.89 95.05C106.423 95.5567 106.963 96.0567 107.51 96.55L107.88 96.88C108.36 97.3067 108.85 97.7233 109.35 98.13L109.78 98.48C110.293 98.9 110.817 99.31 111.35 99.71L111.69 99.97L111.77 100.03L112.12 100.29L112.44 100.52L112.73 100.73L113.08 100.98H112.98L112.53 100.79H112.48L112.04 100.6L111.89 100.54L111.3 100.29H111.21L110.71 100.07L110.5 99.98L110.04 99.78L109.82 99.69L109.29 99.46L109.03 99.34C107.6 98.72 105.85 97.93 103.81 97L102.76 96.52L102.1 96.21L101.84 96.09L101.3 95.84L100.54 95.49L98.76 94.65L98.3 94.43L97.95 94.27L96.89 93.76L96.45 93.55L96.05 93.35L95.05 92.87L94.05 92.38L93.93 92.32L93.58 92.15L93.05 91.89L92.51 91.63L91.34 91.05L90.81 90.79L89.5 90.14L89.06 89.92L86.81 88.8L85.96 88.37L83.61 87.12L83.03 86.82L81.86 86.21L80.77 85.63L79.41 84.9L78.04 84.16L76.66 83.41L76.56 83.36L75.34 82.69L74.05 81.97L73.44 81.63L72.82 81.28C71.4 80.48 69.97 79.6633 68.53 78.83L67.53 78.27C65.7034 77.1967 63.8733 76.1 62.04 74.98L61.28 74.51L60.28 73.88L58.08 72.49L57.23 71.95C58.1 83.42 58.76 96.48 57.9 104.79C72.61 112.52 89.25 117.3 106.46 114.7C89.1788 121.27 71.4714 126.659 53.46 130.83C51.2751 139.339 48.3161 147.63 44.62 155.6C55.98 167.02 69.95 176.23 86.62 179.02C68.4132 179.879 50.1692 179.522 32.01 177.95C29.4 181.82 26.75 185.39 24.15 188.66C29.58 196.96 36.07 204.09 42.74 205.12C52.11 206.56 33.19 206.21 13.27 201.12C9.14856 205.481 4.72061 209.541 0.0200195 213.27L9.39002 231.12C9.39002 231.12 60.04 229.69 86.6 210.2C113.16 190.71 133.2 169.26 138.81 161.12Z" fill="white"/>
<path d="M94.04 80.12L94.34 80.62L94.28 80.51L94.04 80.12Z" fill="white"/>
<path d="M79.42 84.91L78.05 84.17L79.42 84.91Z" fill="white"/>
<path d="M94.71 81.22L94.35 80.63L94.29 80.52L94.05 80.13L94.32 80.58L94.71 81.22Z" fill="white"/>
<path d="M95.0901 92.9L94.0901 92.41L95.0901 92.9Z" fill="white"/>
<path d="M103.81 97.02L102.76 96.54L103.81 97.02Z" fill="white"/>
<path d="M194.03 92.52L195.4 92.64L194.03 92.52Z" fill="white"/>
<path d="M124.45 83.55C115.058 67.1761 106.825 50.1644 99.8101 32.64C107.18 23.64 114.7 3.86 111.63 12.7C108.63 21.34 128.49 10.62 131.39 9.02L131.69 8.84999C134.857 7.09477 138.119 5.5157 141.46 4.12C128.04 25.6 115.54 55.42 124.45 83.55Z" fill="#3F51B5"/>
<path d="M113.15 101.12H113.05L112.6 100.93H112.55L112.11 100.74L111.96 100.68L111.37 100.43H111.28L110.78 100.21L110.57 100.12L110.11 99.92L109.89 99.83L109.36 99.6L109.1 99.48C107.67 98.86 105.92 98.07 103.88 97.14L102.83 96.66L102.17 96.35L101.91 96.23L101.37 95.98L100.61 95.63L98.8301 94.79L98.3701 94.57L98.0201 94.41L96.96 93.9L96.5201 93.69L96.1201 93.49L95.1201 93.01L94.1201 92.52L94.0001 92.46L92.5801 91.77L91.4101 91.19L90.8801 90.93L89.57 90.28L89.1301 90.06L86.8101 88.8L85.96 88.37L83.6101 87.12L83.0301 86.82L81.8601 86.21L80.7701 85.63L79.4101 84.9L78.0401 84.16L76.6601 83.41L76.5601 83.36L75.3401 82.69L74.0501 81.97L73.4401 81.63L72.82 81.28C71.4 80.48 69.9701 79.6633 68.5301 78.83L67.5301 78.27C65.7034 77.1967 63.8734 76.1 62.0401 74.98L61.2801 74.51L60.2801 73.88L58.0801 72.49L57.2301 71.95C56.0501 56.44 54.4701 43.83 55.7201 49.77C57.8801 60.06 66.5901 75.5 73.7901 65.06L74.7201 63.54C76.0201 61.18 77.4501 58.2 78.9101 54.92C79.8601 52.79 80.8201 50.54 81.7801 48.26C82.4901 51.42 83.3101 54.6 84.2701 57.75L84.5101 58.52V58.68L84.6901 59.24C84.9301 59.9933 85.1767 60.7433 85.43 61.49L85.5401 61.81L85.74 62.4L85.9401 62.98L86.2301 63.78L86.3601 64.13L86.7501 65.13L86.93 65.59L87.1101 66.05L87.24 66.39L87.4401 66.9L87.5201 67.1L87.71 67.56L87.8401 67.87L88.0301 68.33L88.2201 68.78L88.6501 69.78L88.8101 70.15L89.0101 70.6L89.1901 71.01L89.4401 71.57L89.7001 72.14C89.9401 72.6467 90.1834 73.15 90.43 73.65L90.6301 74.05L90.8401 74.47L91.0501 74.88L91.2601 75.28L91.68 76.09L91.9701 76.64L92.0401 76.77L92.3801 77.39L92.4501 77.51L93.2201 78.87L93.6101 79.53C94.0301 80.2367 94.4601 80.9367 94.9001 81.63L95.1201 81.98L95.57 82.67L95.8001 83.01L96.0301 83.35L96.7301 84.35L96.9701 84.69L97.1301 84.92L97.3901 85.29L97.6601 85.66C97.9934 86.12 98.3267 86.5767 98.6601 87.03L98.9401 87.4C99.5201 88.1467 100.113 88.8833 100.72 89.61L100.99 89.93L101.57 90.61L101.77 90.83C102.283 91.4167 102.807 91.9933 103.34 92.56L103.66 92.9L103.85 93.1L104.2 93.46L104.54 93.8L105.24 94.49L105.84 95.07C106.373 95.5767 106.913 96.0767 107.46 96.57L107.83 96.9C108.31 97.3267 108.8 97.7433 109.3 98.15L109.73 98.5C110.243 98.92 110.767 99.33 111.3 99.73L111.64 99.99L111.72 100.05L112.07 100.31L112.39 100.54L112.68 100.75L113.15 101.12Z" fill="#3F51B5"/>
<path d="M53.47 130.83C54.1366 128.217 54.7366 125.55 55.27 122.83C55.9366 119.497 56.4633 116.07 56.85 112.55C57.0633 110.69 57.3266 108.847 57.64 107.02C57.7466 106.353 57.84 105.627 57.92 104.84C72.63 112.57 89.27 117.35 106.48 114.75C89.1942 121.303 71.4835 126.676 53.47 130.83V130.83Z" fill="#3F51B5"/>
<path d="M86.59 179.02C68.3831 179.879 50.1392 179.522 31.98 177.95L32.46 177.24C37.0732 170.354 41.1422 163.119 44.63 155.6C55.99 167.02 69.96 176.23 86.59 179.02Z" fill="#3F51B5"/>
<path d="M13.24 201.12C16.57 197.67 20.24 193.52 24.13 188.69C29.56 196.99 36.05 204.12 42.72 205.15C52.08 206.55 33.16 206.2 13.24 201.12Z" fill="#3F51B5"/>
</g>
<defs>
<clipPath id="clip0">
<rect width="201.81" height="231.08" fill="white"/>
</clipPath>
</defs>
</svg>
