<svg width="262" height="320" viewBox="0 0 262 320" fill="none" xmlns="http://www.w3.org/2000/svg">
<g clip-path="url(#clip0)">
<path d="M38 147.94L40.13 147.67L38.88 129.67L58 105.93L66.37 136.93L68.6 136L60.31 104.91L82 89.12L80.24 87.42L59.4 102.9L53.4 78.76L74.4 77.48V75.22L53.47 76.46L64.92 49.28L78 67.13L80 64.91L66.72 47.48L90.5 43.67L92 62.06H94.4L93.17 43.55L123.08 43.41L120.41 40.27L92.36 41L86.25 24.48L123.73 21.17L124.26 18.77L85.45 22.35L77.09 2.26L73.69 1.47L47.49 30L26.74 76.92L36.42 128.47L38 147.94ZM37.11 129.94L38.11 128.49L38.23 129.33L37.11 129.94ZM84.11 25.24L89.41 41.4L66.25 45.1L66 44.74L65.6 45.2H65.01L50.73 31.87L66.84 29.21L68.35 29.65L69.07 28.94L84.13 25.21L84.11 25.24ZM83.3 23L69 26.81L76.28 4.54L83.3 23ZM74.13 4.44L66.71 27.2L50.25 29.9L74.13 4.44ZM48.71 32.81L62.91 46.12L63.38 47.12L62.79 48.45L50.72 76.45L29.63 76.4L48.71 32.81ZM50.84 78.38L57 103.84L38.44 126.9L29.32 78.37L50.84 78.38Z" fill="#BDBEC0"/>
<path d="M191.39 208L203.71 212L201.84 238.87L185.96 238.17C187.545 240.547 189.621 242.556 192.05 244.06C190.165 244.823 188.126 245.13 186.1 244.956C184.074 244.782 182.118 244.133 180.39 243.06C178.28 241.69 178.28 243.97 179.52 247.4L200.73 244.66L203.11 244.52L217.41 273.84L200.8 290.58C203.733 292.139 206.944 293.107 210.25 293.43L221.63 277.14L223.07 275.41L234.23 259.41L233.91 254.54L220.75 270.8L207.08 243.8L233.08 241.8L232.75 236.8L231.75 233.7L206.36 238.34L208.59 212.82L233.59 227.46L237.23 221L235.23 221.31L248.23 218.93L235.46 181.15L233.46 181.72L231.68 180.11L233.47 177.57L215.47 156.76L211 162.58L228.52 180.89L205.22 207L195.76 186.42L177.91 203.51L189.91 207.45C190.402 207.12 190.873 206.759 191.32 206.37C191.34 206.91 191.36 207.43 191.39 208ZM231.24 185.32L234.8 221.57L208.9 208.71L231.24 185.32Z" fill="#BDBEC0"/>
<path d="M233.08 241.87L233.92 254.58L234.72 253.59V258.76L234.24 259.45L238.2 320H250.44L256.3 230.85H232.36L232.76 236.88L234.37 241.77L233.08 241.87Z" fill="#BDBEC0"/>
<path d="M75.3101 5.9C76.9504 5.9 78.2801 4.57924 78.2801 2.95C78.2801 1.32076 76.9504 0 75.3101 0C73.6698 0 72.3401 1.32076 72.3401 2.95C72.3401 4.57924 73.6698 5.9 75.3101 5.9Z" fill="#939598"/>
<path d="M48.71 34.08C50.3503 34.08 51.68 32.7592 51.68 31.13C51.68 29.5008 50.3503 28.18 48.71 28.18C47.0697 28.18 45.74 29.5008 45.74 31.13C45.74 32.7592 47.0697 34.08 48.71 34.08Z" fill="#939598"/>
<path d="M67.6299 31.12C69.2702 31.12 70.5999 29.7992 70.5999 28.17C70.5999 26.5408 69.2702 25.22 67.6299 25.22C65.9896 25.22 64.6599 26.5408 64.6599 28.17C64.6599 29.7992 65.9896 31.12 67.6299 31.12Z" fill="#939598"/>
<path d="M84.99 26.52C86.6303 26.52 87.96 25.1992 87.96 23.57C87.96 21.9408 86.6303 20.62 84.99 20.62C83.3497 20.62 82.02 21.9408 82.02 23.57C82.02 25.1992 83.3497 26.52 84.99 26.52Z" fill="#939598"/>
<path d="M91.44 45.35C93.0803 45.35 94.41 44.0292 94.41 42.4C94.41 40.7708 93.0803 39.45 91.44 39.45C89.7997 39.45 88.47 40.7708 88.47 42.4C88.47 44.0292 89.7997 45.35 91.44 45.35Z" fill="#939598"/>
<path d="M64.6599 49.69C66.3002 49.69 67.6299 48.3692 67.6299 46.74C67.6299 45.1108 66.3002 43.79 64.6599 43.79C63.0197 43.79 61.6899 45.1108 61.6899 46.74C61.6899 48.3692 63.0197 49.69 64.6599 49.69Z" fill="#939598"/>
<path d="M51.68 80.33C53.3202 80.33 54.65 79.0092 54.65 77.38C54.65 75.7507 53.3202 74.43 51.68 74.43C50.0397 74.43 48.71 75.7507 48.71 77.38C48.71 79.0092 50.0397 80.33 51.68 80.33Z" fill="#939598"/>
<path d="M58.73 107.51C60.3703 107.51 61.7 106.189 61.7 104.56C61.7 102.931 60.3703 101.61 58.73 101.61C57.0897 101.61 55.76 102.931 55.76 104.56C55.76 106.189 57.0897 107.51 58.73 107.51Z" fill="#939598"/>
<path d="M37.99 131.84C39.6303 131.84 40.96 130.519 40.96 128.89C40.96 127.261 39.6303 125.94 37.99 125.94C36.3497 125.94 35.02 127.261 35.02 128.89C35.02 130.519 36.3497 131.84 37.99 131.84Z" fill="#939598"/>
<path d="M28.22 80.33C29.8603 80.33 31.19 79.0092 31.19 77.38C31.19 75.7507 29.8603 74.43 28.22 74.43C26.5797 74.43 25.25 75.7507 25.25 77.38C25.25 79.0092 26.5797 80.33 28.22 80.33Z" fill="#939598"/>
<path d="M243.77 248.27C253.429 248.27 261.26 240.471 261.26 230.85C261.26 221.229 253.429 213.43 243.77 213.43C234.111 213.43 226.28 221.229 226.28 230.85C226.28 240.471 234.111 248.27 243.77 248.27Z" fill="#939598"/>
<path d="M231.62 186.45C234.702 186.45 237.2 183.961 237.2 180.89C237.2 177.819 234.702 175.33 231.62 175.33C228.538 175.33 226.04 177.819 226.04 180.89C226.04 183.961 228.538 186.45 231.62 186.45Z" fill="#939598"/>
<path d="M206.32 214.66C209.402 214.66 211.9 212.171 211.9 209.1C211.9 206.029 209.402 203.54 206.32 203.54C203.238 203.54 200.74 206.029 200.74 209.1C200.74 212.171 203.238 214.66 206.32 214.66Z" fill="#939598"/>
<path d="M203.71 247.33C206.792 247.33 209.29 244.841 209.29 241.77C209.29 238.699 206.792 236.21 203.71 236.21C200.628 236.21 198.13 238.699 198.13 241.77C198.13 244.841 200.628 247.33 203.71 247.33Z" fill="#939598"/>
<path d="M221.03 280.44C224.112 280.44 226.61 277.951 226.61 274.88C226.61 271.809 224.112 269.32 221.03 269.32C217.948 269.32 215.45 271.809 215.45 274.88C215.45 277.951 217.948 280.44 221.03 280.44Z" fill="#939598"/>
<path d="M92.0499 98.67C103.88 98.67 113.47 89.1158 113.47 77.33C113.47 65.5442 103.88 55.99 92.0499 55.99C80.2199 55.99 70.6299 65.5442 70.6299 77.33C70.6299 89.1158 80.2199 98.67 92.0499 98.67Z" fill="#939598"/>
<path d="M234.72 253.59L233.92 254.58L234.24 259.45L234.72 258.76V253.59Z" fill="#BDBEC0"/>
<path d="M0.119938 276.73C-0.162908 268.058 0.0608065 259.376 0.789938 250.73C9.31994 260.04 26.5599 276.83 40.4999 277.63C58.2999 278.7 26.9999 289.45 0.119938 276.73Z" fill="#202C70"/>
<path d="M2.55005 237C3.73005 230.39 5.33005 224.81 7.39005 221.34C10.55 216.04 15.06 210.75 19.39 205.16C24.86 219.16 38.3 244.8 65.39 252.47C99.5401 262.14 29 259.22 2.55005 237Z" fill="#202C70"/>
<path d="M226.6 115.62C224.6 123.26 222.08 127.96 220.94 131.72C215.589 131.346 210.289 130.435 205.12 129C212.583 125.045 219.76 120.574 226.6 115.62V115.62Z" fill="#202C70"/>
<path d="M228.39 106.82C208.8 115.38 182.75 117.58 193.45 113.23C203.15 109.29 220.45 88.53 228.8 78.09C229.221 81.4244 229.458 84.7795 229.51 88.14C229.653 94.3869 229.278 100.635 228.39 106.82V106.82Z" fill="#202C70"/>
<path d="M136.13 14.51C133.61 37.51 129.64 53.64 128.68 43.77C128 37.22 124.5 24 121.58 13.89C124.991 14.3366 128.43 14.5372 131.87 14.49C133.32 14.47 134.75 14.48 136.13 14.51Z" fill="#202C70"/>
<path d="M158.91 17.75C155.35 30.32 147.91 48.4 149.07 40.44C149.79 35.58 149.39 25.09 148.79 15.62C152.202 16.1342 155.581 16.8454 158.91 17.75V17.75Z" fill="#202C70"/>
<path d="M189.28 35.9C189.28 35.9 185.81 32.16 175.19 24.63C175.19 24.63 189.19 7.63 193.91 6.76C195.95 12.71 198.23 24.74 189.28 35.9Z" fill="#202C70"/>
<path d="M191.33 206.4C190.883 206.789 190.412 207.15 189.92 207.48L191.39 207.96C191.36 207.43 191.34 206.91 191.33 206.4Z" fill="#3F51B5"/>
<path d="M198.19 293.21L207 298.1L210.26 293.43C206.954 293.107 203.743 292.139 200.81 290.58L198.19 293.21Z" fill="#3F51B5"/>
<path d="M63.5699 163.75C48.9899 160.64 34.0699 148.94 28.3899 144.12C31.2641 149.63 33.1942 155.582 34.0999 161.73C63.2199 171.4 74.3899 166.07 63.5699 163.75Z" fill="#3F51B5"/>
<path d="M50.78 135C74.52 141.29 91.58 137.32 82.87 135.31C78.18 134.24 71.39 129.31 65.23 124.03C63.2495 124.396 61.2434 124.606 59.23 124.66C59.23 124.66 67.92 133.79 50.78 135Z" fill="#3F51B5"/>
<path d="M193.29 160C182.17 161.74 206.64 165.29 227.21 158.85C224.753 154.455 222.909 149.745 221.73 144.85C214.43 150.21 201.73 158.71 193.29 160Z" fill="#3F51B5"/>
<path d="M220.4 136.63C220.4 136.37 220.35 136.1 220.33 135.84C220.277 134.445 220.481 133.052 220.93 131.73C215.582 131.352 210.285 130.437 205.12 129C196.12 133.69 186 137.84 175.93 139.56C152.28 143.57 194.35 141.82 220.4 136.63Z" fill="#3F51B5"/>
<path d="M79.76 111.46C82.1674 111.677 84.588 111.23 86.76 110.17C84.7364 113.217 82.1746 115.871 79.2 118C85.32 117 91.09 115.06 95.27 111.81L90.64 119.13C90.64 119.13 122.11 102.58 128.59 90.13C128.59 90.13 154.51 120.46 164.69 119.13C164.69 119.13 157.75 114.57 159.13 107.65C159.13 107.65 181.34 122.57 205.13 128.96C212.592 125.011 219.769 120.547 226.61 115.6C227.369 112.699 227.966 109.757 228.4 106.79C208.81 115.35 182.76 117.55 193.46 113.2C203.16 109.26 220.46 88.5 228.81 78.06C225.63 52.91 212.9 40.42 212.9 40.42C209.43 10.76 198.26 8.54 194.79 6.81C194.516 6.69023 194.21 6.66558 193.92 6.74C195.92 12.74 198.24 24.74 189.29 35.88C189.29 35.88 185.82 32.14 175.2 24.61C173.79 23.49 168.2 20.26 158.93 17.74C155.37 30.31 147.93 48.39 149.09 40.43C149.81 35.57 149.41 25.08 148.81 15.61C144.618 14.9759 140.389 14.6085 136.15 14.51C133.63 37.51 129.66 53.64 128.7 43.77C128 37.22 124.5 24 121.58 13.89C116.934 13.3296 112.374 12.2046 108 10.54C108 10.54 109.21 22.22 119.63 23.77C119.63 23.77 113.38 30.52 106.35 30C106.35 30 113.35 36 117.81 35.19C117.81 35.19 112.34 47.65 104.01 50.19C104.01 50.19 112.86 51.49 115.47 48.9C115.47 48.9 113.39 61.9 107.66 65.76C107.66 65.76 115.47 66.28 116.81 63.2C116.81 63.2 115.47 76.4 111.04 79.5C112.514 79.7959 114.04 79.7063 115.47 79.24C115.47 79.24 105 96.67 84.71 97.71C84.71 97.71 93.3 101.34 99.03 100.3C99.03 100.3 90.67 108.71 81.03 106.63C81.03 106.63 71.43 105.74 67.53 113.78C67.53 113.79 75.34 111.2 79.76 111.46Z" fill="#3F51B5"/>
<path d="M210.26 293.43L207 298.1L198.19 293.21L200.81 290.58C192.96 285.93 198.26 278.18 198.26 278.18C188.34 277.18 178.91 267.06 182.88 267.55C186.85 268.04 192.55 262.61 192.55 262.61C187.39 262.45 181.65 253.27 179.55 247.43C178.31 244 178.31 241.71 180.42 243.09C182.148 244.163 184.104 244.812 186.13 244.986C188.157 245.16 190.195 244.853 192.08 244.09C189.652 242.586 187.575 240.577 185.99 238.2C179.28 228.57 178.48 214.03 181.67 218.39C185.67 223.82 196.05 223.58 196.05 223.58C193.34 221.12 191.75 213.92 191.42 207.98L189.95 207.5C189.046 208.107 188.101 208.648 187.12 209.12C184.3 210.63 166.41 218.47 151.77 221.72C156.47 220.62 170 222.09 156.61 226.72C143.22 231.35 139.12 253.57 139.12 253.57C136.52 237.63 123.87 233.92 123.87 233.92C105.48 229.34 114.32 224.09 115.24 223.58C113.31 224.34 95.5001 226.04 88.9001 219.47C82.3001 212.9 60.6001 208.36 60.6001 208.36C66.6001 205.77 65.8101 197.98 65.8101 197.98C52.8101 199.3 40.9601 187.33 33.4801 177.35C33.2601 178.3 33.0001 179.26 32.7001 180.21C30.9901 189.56 25.3501 197.62 19.4501 205.15C24.9201 219.15 38.3601 244.79 65.4501 252.46C99.5401 262.14 29.0001 259.22 2.55012 237C1.79012 241.26 1.21012 245.95 0.790117 250.78C9.32012 260.09 26.5601 276.88 40.5001 277.68C58.3001 278.68 26.9701 289.45 0.120117 276.73C0.242225 281.416 0.639576 286.091 1.31012 290.73C2.58012 298.73 3.94012 309.68 5.13012 319.99H207.59C207.59 319.81 207.65 319.62 207.68 319.43C211.68 296.43 218.84 293.98 218.84 293.98C215.971 293.979 213.105 293.796 210.26 293.43V293.43Z" fill="#3F51B5"/>
<path d="M92.0499 87.96C97.9428 87.96 102.72 83.2008 102.72 77.33C102.72 71.4592 97.9428 66.7 92.0499 66.7C86.157 66.7 81.3799 71.4592 81.3799 77.33C81.3799 83.2008 86.157 87.96 92.0499 87.96Z" fill="white"/>
<path d="M164.52 87.96C170.413 87.96 175.19 83.2008 175.19 77.33C175.19 71.4592 170.413 66.7 164.52 66.7C158.627 66.7 153.85 71.4592 153.85 77.33C153.85 83.2008 158.627 87.96 164.52 87.96Z" fill="white"/>
<path d="M222.81 166.72C231 171.91 237.19 170.43 237.19 170.43C233.95 168.43 230.29 164.37 227.19 158.88C206.62 165.32 182.19 161.77 193.27 160.03C201.72 158.71 214.42 150.21 221.72 144.88C221.056 142.17 220.611 139.411 220.39 136.63C194.34 141.82 152.27 143.57 175.92 139.54C185.99 137.83 196.14 133.68 205.11 128.98C181.34 122.59 159.11 107.67 159.11 107.67C157.73 114.59 164.67 119.15 164.67 119.15C154.48 120.48 128.57 90.15 128.57 90.15C122.09 102.61 90.62 119.15 90.62 119.15L95.25 111.83C91.09 115.08 85.32 117 79.2 118C75.0442 121.028 70.2587 123.079 65.2 124C71.36 129.24 78.2 134.2 82.84 135.28C91.55 137.28 74.5 141.28 50.75 134.97C48.0023 135.129 45.2477 135.129 42.5 134.97C42.5 134.97 54.5 148.72 24.28 137.31C25.809 139.429 27.1667 141.666 28.34 144V144C34.03 148.83 48.94 160.52 63.52 163.63C74.34 165.94 63.17 171.27 34.05 161.63C34.8034 166.834 34.5898 172.133 33.42 177.26C41 187.33 52.79 199.3 65.8 198C65.8 198 66.54 205.78 60.59 208.38C60.59 208.38 82.17 212.83 88.87 219.5C95.57 226.17 113.28 224.37 115.21 223.61C114.29 224.12 105.45 229.37 123.84 233.95C123.84 233.95 136.49 237.66 139.09 253.6C139.09 253.6 143.18 231.4 156.58 226.75C169.98 222.1 156.44 220.63 151.74 221.75C166.38 218.5 184.27 210.66 187.09 209.15C188.614 208.439 190.037 207.527 191.32 206.44C191.2 200.7 192.39 196.82 195.03 201.12C200.48 210.02 214.87 211.99 214.87 211.99C203.46 204.09 203.96 178.63 208.43 186.54C212.9 194.45 224.8 195.19 224.8 195.19C220.58 191.68 214.63 161.53 222.81 166.72Z" fill="white"/>
<path d="M142.83 82.85C142.83 82.85 158.02 82.8 171.21 89.32C184.4 95.84 158.88 101.6 158.88 101.6L142.83 82.85Z" fill="#3F51B5"/>
<path d="M164.52 80.28C166.16 80.28 167.49 78.9592 167.49 77.33C167.49 75.7008 166.16 74.38 164.52 74.38C162.88 74.38 161.55 75.7008 161.55 77.33C161.55 78.9592 162.88 80.28 164.52 80.28Z" fill="#202C70"/>
<path d="M92.0501 80.28C93.6904 80.28 95.0201 78.9592 95.0201 77.33C95.0201 75.7008 93.6904 74.38 92.0501 74.38C90.4098 74.38 89.0801 75.7008 89.0801 77.33C89.0801 78.9592 90.4098 80.28 92.0501 80.28Z" fill="#EC2227"/>
<path d="M124.76 142.13L130.15 137.51L135.74 141.51C135.74 141.51 131.21 147.85 124.76 142.13Z" fill="#EC2227"/>
<path d="M141.84 125.64C142.19 127.43 142.11 129.34 139.19 132.13C137.19 134.04 133.74 135.59 131.77 136.38C131.77 141.79 141.97 139.46 152.94 137.59C152.94 137.59 134.47 148.02 130.26 141.59C126.05 148.05 107.58 137.59 107.58 137.59C118.95 139.59 128.75 141.9 128.75 136.38C126.75 135.59 123.32 134.04 121.33 132.13C118.41 129.34 118.33 127.43 118.68 125.64C118.68 125.64 119.89 118.83 130.27 118.83C140.65 118.83 141.84 125.64 141.84 125.64Z" fill="#3F51B5"/>
</g>
<defs>
<clipPath id="clip0">
<rect width="261.26" height="320" fill="white"/>
</clipPath>
</defs>
</svg>
