<svg height="472pt" viewBox="0 -15 472.0016 472" width="472pt" xmlns="http://www.w3.org/2000/svg"><path d="m58.296875 442h361c29.0625 0 52.703125-24.398438 52.703125-54.566406v-379.578125c-.003906-2.105469-.855469-4.125-2.355469-5.597657-1.503906-1.476562-3.535156-2.289062-5.644531-2.257812h-355.410156c-2.0625-.015625-4.042969.816406-5.480469 2.300781-1.433594 1.484375-2.195313 3.492188-2.109375 5.554688v213.144531h-93c-4.449219.085938-8.0117188 3.726562-8 8.179688v152.410156c-.113281 15.882812 5.941406 31.1875 16.890625 42.6875 10.769531 11.363281 25.75 17.773437 41.40625 17.722656zm58.703125-60.410156v-365.589844h339v371.433594c0 21.347656-16.464844 38.566406-36.703125 38.566406h-321.394531c.609375 0 1.414062-1.109375 2-1.722656 11.007812-11.480469 17.136718-26.78125 17.097656-42.6875zm-101-144.589844h85v144.589844c.035156 11.804687-4.5 23.164062-12.652344 31.703125-7.789062 8.207031-18.605468 12.859375-29.921875 12.859375-11.316406 0-22.136719-4.652344-29.921875-12.859375-8.113281-8.554688-12.59375-19.914063-12.503906-31.703125zm0 0"/><path d="m143.5 128.046875c4.03125 0 8.5-1.820313 8.5-5.300781v-45.054688l24.085938 45.292969h-.070313c1.867187 3.398437 4.710937 5.058594 9.046875 5.058594 4.027344 0 7.9375-1.820313 7.9375-5.300781v-76.074219c0-3.578125-3.960938-5.179688-8-5.179688-3.738281 0-8 1.355469-8 5.179688v45l-21.621094-41.835938c-3.75-7.136719-6.472656-8.34375-12.03125-8.34375-4.035156 0-8.347656 1.636719-8.347656 5.300781v75.960938c0 3.640625 4.601562 5.296875 8.5 5.296875zm0 0"/><path d="m221.191406 128h41.667969c3.640625 0 5.300781-3.484375 5.300781-6.882812 0-4.289063-2.179687-7.117188-5.300781-7.117188h-32.859375v-23h17.527344c3.480468 0 5.300781-3.226562 5.300781-6.382812 0-3.269532-1.820313-6.617188-5.300781-6.617188h-17.527344v-22h32.859375c3.121094 0 5.300781-3.324219 5.300781-7.613281 0-3.402344-1.660156-7.386719-5.300781-7.386719h-41.667969c-3.453125 0-7.191406 2.144531-7.191406 5.785156v75.964844c0 3.640625 3.738281 5.25 7.191406 5.25zm0 0"/><path d="m299.222656 123.242188c1.21875 4.066406 6.378906 5.507812 10.425782 5.507812 4.4375 0 9.3125-1.710938 10.199218-5.535156l7.121094-29.566406 7.003906 29.5625c.894532 3.828124 5.769532 5.539062 10.203125 5.539062 4.152344 0 9.070313-1.441406 10.421875-5.492188l23.175782-73.621093c.160156-.503907.25-1.03125.257812-1.5625 0-3.710938-5.488281-6.585938-10.214844-6.585938-2.976562 0-4.9375 1.210938-5.511718 3.398438l-17.96875 61.644531-9.507813-38.914062c-.8125-3.390626-4.742187-4.597657-7.859375-4.597657-3.324219 0-7.164062 1.207031-7.976562 4.59375l-9.503907 38.917969-17.964843-61.628906c-.578126-2.199219-2.539063-3.417969-5.515626-3.417969-4.722656 0-10.214843 2.878906-10.214843 6.589844.011719.527343.097656 1.050781.257812 1.550781zm0 0"/><path d="m409.675781 114.402344c-7.125 0-11-3.257813-14.121093-5.878906-2-1.679688-3.730469-3.132813-5.777344-3.132813-3.957032 0-7.171875 5.257813-7.171875 8.691406 0 7.085938 11.777343 15.015625 27.539062 15.015625 17.492188 0 28.355469-9.925781 28.355469-25.902344 0-18.246093-13.398438-23.929687-24.164062-28.5-7.191407-3.050781-13.40625-5.6875-13.40625-11.292968 0-5.410156 4.636718-8.511719 12.726562-8.511719 4.121094-.089844 8.191406.9375 11.773438 2.972656 1.320312.832031 2.820312 1.339844 4.378906 1.476563 4.597656 0 6.585937-5.675782 6.585937-8.574219 0-7.785156-14.292969-9.863281-22.738281-9.863281-13.992188 0-28.941406 6.28125-28.941406 23.910156 0 15.773438 11.832031 21.027344 22.277344 25.664062 8.203124 3.644532 15.292968 6.792969 15.292968 14.246094 0 7.140625-6.511718 9.679688-12.609375 9.679688zm0 0"/><path d="m415.382812 159h-257.617187c-4.417969 0-8 3.582031-8 8 0 4.421875 3.582031 8 8 8h257.617187c4.417969 0 8-3.578125 8-8 0-4.417969-3.582031-8-8-8zm0 0"/><path d="m415.382812 194h-257.617187c-4.417969 0-8 3.582031-8 8 0 4.421875 3.582031 8 8 8h257.617187c4.417969 0 8-3.578125 8-8 0-4.417969-3.582031-8-8-8zm0 0"/><path d="m415.382812 229h-257.617187c-4.417969 0-8 3.582031-8 8 0 4.421875 3.582031 8 8 8h257.617187c4.417969 0 8-3.578125 8-8 0-4.417969-3.582031-8-8-8zm0 0"/><path d="m415.382812 264h-89.96875c-4.417968 0-8 3.582031-8 8 0 4.421875 3.582032 8 8 8h89.96875c4.417969 0 8-3.578125 8-8 0-4.417969-3.582031-8-8-8zm0 0"/><path d="m415.382812 299h-89.96875c-4.417968 0-8 3.582031-8 8 0 4.421875 3.582032 8 8 8h89.96875c4.417969 0 8-3.578125 8-8 0-4.417969-3.582031-8-8-8zm0 0"/><path d="m415.382812 334h-89.96875c-4.417968 0-8 3.582031-8 8 0 4.421875 3.582032 8 8 8h89.96875c4.417969 0 8-3.578125 8-8 0-4.417969-3.582031-8-8-8zm0 0"/><path d="m290 272c0-4.417969-3.582031-8-8-8h-124c-4.417969 0-8 3.582031-8 8v105c0 4.421875 3.582031 8 8 8h124c4.417969 0 8-3.578125 8-8zm-17 97h-107v-89h107zm0 0"/><path d="m415.382812 369h-89.96875c-4.417968 0-8 3.582031-8 8 0 4.421875 3.582032 8 8 8h89.96875c4.417969 0 8-3.578125 8-8 0-4.417969-3.582031-8-8-8zm0 0"/></svg>